<mxfile host="app.diagrams.net" modified="2023-05-29T15:20:14.126Z" agent="Mozilla/5.0 (Windows NT 10.0; Win64; x64) AppleWebKit/537.36 (KHTML, like Gecko) Chrome/113.0.0.0 Safari/537.36 Edg/113.0.1774.57" etag="ZrHHy_ewaxY_W-E9k-j3" version="21.3.5" type="github">
  <diagram name="페이지-1" id="gx3eHG2kF5ZSUDRwYBRm">
    <mxGraphModel dx="3891" dy="1751" grid="1" gridSize="10" guides="1" tooltips="1" connect="1" arrows="1" fold="1" page="1" pageScale="1" pageWidth="827" pageHeight="1169" math="0" shadow="0">
      <root>
        <mxCell id="0" />
        <mxCell id="1" parent="0" />
        <mxCell id="4IXY94Ugl1tDY6TR7ZFZ-17" style="edgeStyle=orthogonalEdgeStyle;rounded=0;orthogonalLoop=1;jettySize=auto;html=1;exitX=0.5;exitY=1;exitDx=0;exitDy=0;entryX=0.5;entryY=0;entryDx=0;entryDy=0;" edge="1" parent="1" source="4IXY94Ugl1tDY6TR7ZFZ-1" target="4IXY94Ugl1tDY6TR7ZFZ-2">
          <mxGeometry relative="1" as="geometry" />
        </mxCell>
        <mxCell id="4IXY94Ugl1tDY6TR7ZFZ-1" value="start" style="ellipse;whiteSpace=wrap;html=1;" vertex="1" parent="1">
          <mxGeometry x="380" y="80" width="120" height="80" as="geometry" />
        </mxCell>
        <mxCell id="4IXY94Ugl1tDY6TR7ZFZ-18" style="edgeStyle=orthogonalEdgeStyle;rounded=0;orthogonalLoop=1;jettySize=auto;html=1;exitX=0.5;exitY=1;exitDx=0;exitDy=0;entryX=0.5;entryY=0;entryDx=0;entryDy=0;" edge="1" parent="1" source="4IXY94Ugl1tDY6TR7ZFZ-2" target="4IXY94Ugl1tDY6TR7ZFZ-3">
          <mxGeometry relative="1" as="geometry" />
        </mxCell>
        <mxCell id="4IXY94Ugl1tDY6TR7ZFZ-2" value="read" style="shape=parallelogram;perimeter=parallelogramPerimeter;whiteSpace=wrap;html=1;fixedSize=1;" vertex="1" parent="1">
          <mxGeometry x="380" y="190" width="120" height="60" as="geometry" />
        </mxCell>
        <mxCell id="4IXY94Ugl1tDY6TR7ZFZ-20" style="edgeStyle=orthogonalEdgeStyle;rounded=0;orthogonalLoop=1;jettySize=auto;html=1;exitX=1;exitY=0.5;exitDx=0;exitDy=0;entryX=0.5;entryY=0;entryDx=0;entryDy=0;" edge="1" parent="1" source="4IXY94Ugl1tDY6TR7ZFZ-3" target="4IXY94Ugl1tDY6TR7ZFZ-5">
          <mxGeometry relative="1" as="geometry">
            <mxPoint x="570" y="319.8888888888887" as="targetPoint" />
          </mxGeometry>
        </mxCell>
        <mxCell id="4IXY94Ugl1tDY6TR7ZFZ-24" style="edgeStyle=orthogonalEdgeStyle;rounded=0;orthogonalLoop=1;jettySize=auto;html=1;exitX=0;exitY=0.5;exitDx=0;exitDy=0;entryX=0.5;entryY=0;entryDx=0;entryDy=0;" edge="1" parent="1" source="4IXY94Ugl1tDY6TR7ZFZ-3" target="4IXY94Ugl1tDY6TR7ZFZ-4">
          <mxGeometry relative="1" as="geometry">
            <mxPoint x="280" y="319.8888888888887" as="targetPoint" />
          </mxGeometry>
        </mxCell>
        <mxCell id="4IXY94Ugl1tDY6TR7ZFZ-3" value="x&amp;gt;y?" style="rhombus;whiteSpace=wrap;html=1;" vertex="1" parent="1">
          <mxGeometry x="370" y="280" width="140" height="80" as="geometry" />
        </mxCell>
        <mxCell id="4IXY94Ugl1tDY6TR7ZFZ-21" style="edgeStyle=orthogonalEdgeStyle;rounded=0;orthogonalLoop=1;jettySize=auto;html=1;exitX=0;exitY=0.5;exitDx=0;exitDy=0;entryX=0.5;entryY=0;entryDx=0;entryDy=0;" edge="1" parent="1" source="4IXY94Ugl1tDY6TR7ZFZ-4" target="4IXY94Ugl1tDY6TR7ZFZ-6">
          <mxGeometry relative="1" as="geometry" />
        </mxCell>
        <mxCell id="4IXY94Ugl1tDY6TR7ZFZ-22" style="edgeStyle=orthogonalEdgeStyle;rounded=0;orthogonalLoop=1;jettySize=auto;html=1;exitX=1;exitY=0.5;exitDx=0;exitDy=0;entryX=0.633;entryY=-0.039;entryDx=0;entryDy=0;entryPerimeter=0;" edge="1" parent="1" source="4IXY94Ugl1tDY6TR7ZFZ-4" target="4IXY94Ugl1tDY6TR7ZFZ-7">
          <mxGeometry relative="1" as="geometry" />
        </mxCell>
        <mxCell id="4IXY94Ugl1tDY6TR7ZFZ-4" value="x&amp;gt;z?" style="rhombus;whiteSpace=wrap;html=1;" vertex="1" parent="1">
          <mxGeometry x="220" y="380" width="140" height="80" as="geometry" />
        </mxCell>
        <mxCell id="4IXY94Ugl1tDY6TR7ZFZ-25" style="edgeStyle=orthogonalEdgeStyle;rounded=0;orthogonalLoop=1;jettySize=auto;html=1;exitX=1;exitY=0.5;exitDx=0;exitDy=0;entryX=0.5;entryY=0;entryDx=0;entryDy=0;" edge="1" parent="1" source="4IXY94Ugl1tDY6TR7ZFZ-5" target="4IXY94Ugl1tDY6TR7ZFZ-10">
          <mxGeometry relative="1" as="geometry" />
        </mxCell>
        <mxCell id="4IXY94Ugl1tDY6TR7ZFZ-26" style="edgeStyle=orthogonalEdgeStyle;rounded=0;orthogonalLoop=1;jettySize=auto;html=1;exitX=0;exitY=0.5;exitDx=0;exitDy=0;entryX=0.25;entryY=0;entryDx=0;entryDy=0;" edge="1" parent="1" source="4IXY94Ugl1tDY6TR7ZFZ-5" target="4IXY94Ugl1tDY6TR7ZFZ-8">
          <mxGeometry relative="1" as="geometry" />
        </mxCell>
        <mxCell id="4IXY94Ugl1tDY6TR7ZFZ-5" value="x&amp;gt;z?" style="rhombus;whiteSpace=wrap;html=1;" vertex="1" parent="1">
          <mxGeometry x="500" y="380" width="140" height="80" as="geometry" />
        </mxCell>
        <mxCell id="4IXY94Ugl1tDY6TR7ZFZ-28" style="edgeStyle=orthogonalEdgeStyle;rounded=0;orthogonalLoop=1;jettySize=auto;html=1;exitX=0.5;exitY=1;exitDx=0;exitDy=0;entryX=0.5;entryY=0;entryDx=0;entryDy=0;" edge="1" parent="1" source="4IXY94Ugl1tDY6TR7ZFZ-6" target="4IXY94Ugl1tDY6TR7ZFZ-12">
          <mxGeometry relative="1" as="geometry" />
        </mxCell>
        <mxCell id="4IXY94Ugl1tDY6TR7ZFZ-6" value="maxi=x" style="rounded=0;whiteSpace=wrap;html=1;" vertex="1" parent="1">
          <mxGeometry x="90" y="500" width="120" height="60" as="geometry" />
        </mxCell>
        <mxCell id="4IXY94Ugl1tDY6TR7ZFZ-7" value="mid=x&lt;br&gt;maxi=z&lt;br&gt;mini=y" style="rounded=0;whiteSpace=wrap;html=1;" vertex="1" parent="1">
          <mxGeometry x="310" y="500" width="120" height="60" as="geometry" />
        </mxCell>
        <mxCell id="4IXY94Ugl1tDY6TR7ZFZ-8" value="mid=x&lt;br&gt;maxi=y&lt;br&gt;mini=z" style="rounded=0;whiteSpace=wrap;html=1;" vertex="1" parent="1">
          <mxGeometry x="450" y="500" width="120" height="60" as="geometry" />
        </mxCell>
        <mxCell id="4IXY94Ugl1tDY6TR7ZFZ-27" style="edgeStyle=orthogonalEdgeStyle;rounded=0;orthogonalLoop=1;jettySize=auto;html=1;exitX=0.5;exitY=1;exitDx=0;exitDy=0;entryX=0.5;entryY=0;entryDx=0;entryDy=0;" edge="1" parent="1" source="4IXY94Ugl1tDY6TR7ZFZ-10" target="4IXY94Ugl1tDY6TR7ZFZ-13">
          <mxGeometry relative="1" as="geometry" />
        </mxCell>
        <mxCell id="4IXY94Ugl1tDY6TR7ZFZ-10" value="mini=x" style="rounded=0;whiteSpace=wrap;html=1;" vertex="1" parent="1">
          <mxGeometry x="670" y="500" width="120" height="60" as="geometry" />
        </mxCell>
        <mxCell id="4IXY94Ugl1tDY6TR7ZFZ-11" value="mid=y&lt;br&gt;maxi=z&lt;br&gt;mini=z" style="rounded=0;whiteSpace=wrap;html=1;" vertex="1" parent="1">
          <mxGeometry x="780" y="690" width="120" height="60" as="geometry" />
        </mxCell>
        <mxCell id="4IXY94Ugl1tDY6TR7ZFZ-29" style="edgeStyle=orthogonalEdgeStyle;rounded=0;orthogonalLoop=1;jettySize=auto;html=1;exitX=0;exitY=0.5;exitDx=0;exitDy=0;entryX=0.5;entryY=0;entryDx=0;entryDy=0;" edge="1" parent="1" source="4IXY94Ugl1tDY6TR7ZFZ-12" target="4IXY94Ugl1tDY6TR7ZFZ-16">
          <mxGeometry relative="1" as="geometry" />
        </mxCell>
        <mxCell id="4IXY94Ugl1tDY6TR7ZFZ-30" style="edgeStyle=orthogonalEdgeStyle;rounded=0;orthogonalLoop=1;jettySize=auto;html=1;exitX=1;exitY=0.5;exitDx=0;exitDy=0;entryX=0.5;entryY=0;entryDx=0;entryDy=0;" edge="1" parent="1" source="4IXY94Ugl1tDY6TR7ZFZ-12" target="4IXY94Ugl1tDY6TR7ZFZ-15">
          <mxGeometry relative="1" as="geometry" />
        </mxCell>
        <mxCell id="4IXY94Ugl1tDY6TR7ZFZ-12" value="y&amp;gt;z?" style="rhombus;whiteSpace=wrap;html=1;" vertex="1" parent="1">
          <mxGeometry x="80" y="590" width="140" height="80" as="geometry" />
        </mxCell>
        <mxCell id="4IXY94Ugl1tDY6TR7ZFZ-31" style="edgeStyle=orthogonalEdgeStyle;rounded=0;orthogonalLoop=1;jettySize=auto;html=1;exitX=0;exitY=0.5;exitDx=0;exitDy=0;entryX=0.5;entryY=0;entryDx=0;entryDy=0;" edge="1" parent="1" source="4IXY94Ugl1tDY6TR7ZFZ-13" target="4IXY94Ugl1tDY6TR7ZFZ-14">
          <mxGeometry relative="1" as="geometry" />
        </mxCell>
        <mxCell id="4IXY94Ugl1tDY6TR7ZFZ-32" style="edgeStyle=orthogonalEdgeStyle;rounded=0;orthogonalLoop=1;jettySize=auto;html=1;exitX=1;exitY=0.5;exitDx=0;exitDy=0;entryX=0.5;entryY=0;entryDx=0;entryDy=0;" edge="1" parent="1" source="4IXY94Ugl1tDY6TR7ZFZ-13" target="4IXY94Ugl1tDY6TR7ZFZ-11">
          <mxGeometry relative="1" as="geometry" />
        </mxCell>
        <mxCell id="4IXY94Ugl1tDY6TR7ZFZ-13" value="y&amp;gt;z?" style="rhombus;whiteSpace=wrap;html=1;" vertex="1" parent="1">
          <mxGeometry x="660" y="590" width="140" height="80" as="geometry" />
        </mxCell>
        <mxCell id="4IXY94Ugl1tDY6TR7ZFZ-14" value="mid=z&lt;br&gt;maxi=y&lt;br&gt;mini=x" style="rounded=0;whiteSpace=wrap;html=1;" vertex="1" parent="1">
          <mxGeometry x="570" y="690" width="120" height="60" as="geometry" />
        </mxCell>
        <mxCell id="4IXY94Ugl1tDY6TR7ZFZ-15" value="mid=z&lt;br&gt;maxi=x&lt;br&gt;mini=y" style="rounded=0;whiteSpace=wrap;html=1;" vertex="1" parent="1">
          <mxGeometry x="200" y="690" width="120" height="60" as="geometry" />
        </mxCell>
        <mxCell id="4IXY94Ugl1tDY6TR7ZFZ-16" value="mid=y&lt;br&gt;maxi=x&lt;br&gt;mini=z" style="rounded=0;whiteSpace=wrap;html=1;" vertex="1" parent="1">
          <mxGeometry x="-20" y="690" width="120" height="60" as="geometry" />
        </mxCell>
      </root>
    </mxGraphModel>
  </diagram>
</mxfile>
